<mxfile host="65bd71144e" scale="3" border="0">
    <diagram id="WzGhkV7UacbDSZKQn_yc" name="Page-1">
        <mxGraphModel dx="1130" dy="784" grid="1" gridSize="10" guides="1" tooltips="1" connect="1" arrows="1" fold="1" page="1" pageScale="1" pageWidth="1169" pageHeight="827" background="none" math="1" shadow="0">
            <root>
                <mxCell id="0"/>
                <mxCell id="1" parent="0"/>
                <mxCell id="65" value="" style="group" parent="1" vertex="1" connectable="0">
                    <mxGeometry x="50" y="340" width="720" height="310" as="geometry"/>
                </mxCell>
                <mxCell id="9" value="&lt;font style=&quot;font-size: 17px;&quot;&gt;Docker Enviroment&lt;/font&gt;" style="verticalAlign=top;align=center;shape=cube;size=10;direction=south;fontStyle=0;html=1;boundedLbl=1;spacingLeft=5;spacingTop=0;container=0;" parent="65" vertex="1">
                    <mxGeometry width="720" height="310" as="geometry"/>
                </mxCell>
                <mxCell id="51" value="" style="group" parent="65" vertex="1" connectable="0">
                    <mxGeometry x="476" y="123" width="210" height="170" as="geometry"/>
                </mxCell>
                <mxCell id="19" value="Client-Container" style="verticalAlign=top;align=center;shape=cube;size=10;direction=south;html=1;boundedLbl=1;spacingLeft=5;rotation=0;" parent="51" vertex="1">
                    <mxGeometry width="210" height="170" as="geometry">
                        <mxPoint as="offset"/>
                    </mxGeometry>
                </mxCell>
                <mxCell id="50" value="" style="group" parent="51" vertex="1" connectable="0">
                    <mxGeometry x="10" y="40" width="178.515" height="110" as="geometry"/>
                </mxCell>
                <mxCell id="20" value="Node.js&#10;" style="shape=image;editableCssRules=.*;image=data:image/svg+xml,PHN2ZyB2aWV3Qm94PSIwIDAgMjQgMjQiIHhtbG5zPSJodHRwOi8vd3d3LnczLm9yZy8yMDAwL3N2ZyI+PHN0eWxlPip7ZmlsbDojMzkzfTwvc3R5bGU+PHBhdGggZD0iTTExLjk5OCwyNGMtMC4zMjEsMC0wLjY0MS0wLjA4NC0wLjkyMi0wLjI0N2wtMi45MzYtMS43MzdjLTAuNDM4LTAuMjQ1LTAuMjI0LTAuMzMyLTAuMDgtMC4zODMgYzAuNTg1LTAuMjAzLDAuNzAzLTAuMjUsMS4zMjgtMC42MDRjMC4wNjUtMC4wMzcsMC4xNTEtMC4wMjMsMC4yMTgsMC4wMTdsMi4yNTYsMS4zMzljMC4wODIsMC4wNDUsMC4xOTcsMC4wNDUsMC4yNzIsMGw4Ljc5NS01LjA3NiBjMC4wODItMC4wNDcsMC4xMzQtMC4xNDEsMC4xMzQtMC4yMzhWNi45MjFjMC0wLjA5OS0wLjA1My0wLjE5Mi0wLjEzNy0wLjI0MmwtOC43OTEtNS4wNzJjLTAuMDgxLTAuMDQ3LTAuMTg5LTAuMDQ3LTAuMjcxLDAgTDMuMDc1LDYuNjhDMi45OSw2LjcyOSwyLjkzNiw2LjgyNSwyLjkzNiw2LjkyMXYxMC4xNWMwLDAuMDk3LDAuMDU0LDAuMTg5LDAuMTM5LDAuMjM1bDIuNDA5LDEuMzkyIGMxLjMwNywwLjY1NCwyLjEwOC0wLjExNiwyLjEwOC0wLjg5VjcuNzg3YzAtMC4xNDIsMC4xMTQtMC4yNTMsMC4yNTYtMC4yNTNoMS4xMTVjMC4xMzksMCwwLjI1NSwwLjExMiwwLjI1NSwwLjI1M3YxMC4wMjEgYzAsMS43NDUtMC45NSwyLjc0NS0yLjYwNCwyLjc0NWMtMC41MDgsMC0wLjkwOSwwLTIuMDI2LTAuNTUxTDIuMjgsMTguNjc1Yy0wLjU3LTAuMzI5LTAuOTIyLTAuOTQ1LTAuOTIyLTEuNjA0VjYuOTIxIGMwLTAuNjU5LDAuMzUzLTEuMjc1LDAuOTIyLTEuNjAzbDguNzk1LTUuMDgyYzAuNTU3LTAuMzE1LDEuMjk2LTAuMzE1LDEuODQ4LDBsOC43OTQsNS4wODJjMC41NywwLjMyOSwwLjkyNCwwLjk0NCwwLjkyNCwxLjYwMyB2MTAuMTVjMCwwLjY1OS0wLjM1NCwxLjI3My0wLjkyNCwxLjYwNGwtOC43OTQsNS4wNzhDMTIuNjQzLDIzLjkxNiwxMi4zMjQsMjQsMTEuOTk4LDI0eiBNMTkuMDk5LDEzLjk5MyBjMC0xLjktMS4yODQtMi40MDYtMy45ODctMi43NjNjLTIuNzMxLTAuMzYxLTMuMDA5LTAuNTQ4LTMuMDA5LTEuMTg3YzAtMC41MjgsMC4yMzUtMS4yMzMsMi4yNTgtMS4yMzMgYzEuODA3LDAsMi40NzMsMC4zODksMi43NDcsMS42MDdjMC4wMjQsMC4xMTUsMC4xMjksMC4xOTksMC4yNDcsMC4xOTloMS4xNDFjMC4wNzEsMCwwLjEzOC0wLjAzMSwwLjE4Ni0wLjA4MSBjMC4wNDgtMC4wNTQsMC4wNzQtMC4xMjMsMC4wNjctMC4xOTZjLTAuMTc3LTIuMDk4LTEuNTcxLTMuMDc2LTQuMzg4LTMuMDc2Yy0yLjUwOCwwLTQuMDA0LDEuMDU4LTQuMDA0LDIuODMzIGMwLDEuOTI1LDEuNDg4LDIuNDU3LDMuODk1LDIuNjk1YzIuODgsMC4yODIsMy4xMDMsMC43MDMsMy4xMDMsMS4yNjljMCwwLjk4My0wLjc4OSwxLjQwMi0yLjY0MiwxLjQwMiBjLTIuMzI3LDAtMi44MzktMC41ODQtMy4wMTEtMS43NDJjLTAuMDItMC4xMjQtMC4xMjYtMC4yMTUtMC4yNTMtMC4yMTVoLTEuMTM3Yy0wLjE0MSwwLTAuMjU0LDAuMTEyLTAuMjU0LDAuMjUzIGMwLDEuNDgyLDAuODA2LDMuMjQ4LDQuNjU1LDMuMjQ4QzE3LjUwMSwxNy4wMDcsMTkuMDk5LDE1LjkxLDE5LjA5OSwxMy45OTN6Ii8+PC9zdmc+;spacingTop=11;fontSize=10;spacingLeft=80;" parent="50" vertex="1">
                    <mxGeometry x="66.75999999999999" width="45" height="40" as="geometry"/>
                </mxCell>
                <mxCell id="38" value="Tailwind CSS" style="shape=image;editableCssRules=.*;image=data:image/svg+xml,PHN2ZyB2aWV3Qm94PSIwIDAgMjQgMjQiIHhtbG5zPSJodHRwOi8vd3d3LnczLm9yZy8yMDAwL3N2ZyI+PHN0eWxlPip7ZmlsbDojMDZCNkQ0fTwvc3R5bGU+PHBhdGggZD0iTTEyLjAwMSw0LjhjLTMuMiwwLTUuMiwxLjYtNiw0LjhjMS4yLTEuNiwyLjYtMi4yLDQuMi0xLjhjMC45MTMsMC4yMjgsMS41NjUsMC44OSwyLjI4OCwxLjYyNCBDMTMuNjY2LDEwLjYxOCwxNS4wMjcsMTIsMTguMDAxLDEyYzMuMiwwLDUuMi0xLjYsNi00LjhjLTEuMiwxLjYtMi42LDIuMi00LjIsMS44Yy0wLjkxMy0wLjIyOC0xLjU2NS0wLjg5LTIuMjg4LTEuNjI0IEMxNi4zMzcsNi4xODIsMTQuOTc2LDQuOCwxMi4wMDEsNC44eiBNNi4wMDEsMTJjLTMuMiwwLTUuMiwxLjYtNiw0LjhjMS4yLTEuNiwyLjYtMi4yLDQuMi0xLjhjMC45MTMsMC4yMjgsMS41NjUsMC44OSwyLjI4OCwxLjYyNCBjMS4xNzcsMS4xOTQsMi41MzgsMi41NzYsNS41MTIsMi41NzZjMy4yLDAsNS4yLTEuNiw2LTQuOGMtMS4yLDEuNi0yLjYsMi4yLTQuMiwxLjhjLTAuOTEzLTAuMjI4LTEuNTY1LTAuODktMi4yODgtMS42MjQgQzEwLjMzNywxMy4zODIsOC45NzYsMTIsNi4wMDEsMTJ6Ii8+PC9zdmc+;spacingTop=83;" parent="50" vertex="1">
                    <mxGeometry x="88.51499999999999" y="30" width="90" height="80" as="geometry"/>
                </mxCell>
                <mxCell id="4" value="React.js" style="shape=image;editableCssRules=.*;image=data:image/svg+xml,PHN2ZyB2aWV3Qm94PSIwIDAgMjQgMjQiIHhtbG5zPSJodHRwOi8vd3d3LnczLm9yZy8yMDAwL3N2ZyI+PHN0eWxlPip7ZmlsbDojNjFEQUZCfTwvc3R5bGU+PHBhdGggZD0iTTE0LjIzIDEyLjAwNGEyLjIzNiAyLjIzNiAwIDAgMS0yLjIzNSAyLjIzNiAyLjIzNiAyLjIzNiAwIDAgMS0yLjIzNi0yLjIzNiAyLjIzNiAyLjIzNiAwIDAgMSAyLjIzNS0yLjIzNiAyLjIzNiAyLjIzNiAwIDAgMSAyLjIzNiAyLjIzNnptMi42NDgtMTAuNjljLTEuMzQ2IDAtMy4xMDcuOTYtNC44ODggMi42MjItMS43OC0xLjY1My0zLjU0Mi0yLjYwMi00Ljg4Ny0yLjYwMi0uNDEgMC0uNzgzLjA5My0xLjEwNi4yNzgtMS4zNzUuNzkzLTEuNjgzIDMuMjY0LS45NzMgNi4zNjVDMS45OCA4LjkxNyAwIDEwLjQyIDAgMTIuMDA0YzAgMS41OSAxLjk5IDMuMDk3IDUuMDQzIDQuMDMtLjcwNCAzLjExMy0uMzkgNS41ODguOTg4IDYuMzguMzIuMTg3LjY5LjI3NSAxLjEwMi4yNzUgMS4zNDUgMCAzLjEwNy0uOTYgNC44ODgtMi42MjQgMS43OCAxLjY1NCAzLjU0MiAyLjYwMyA0Ljg4NyAyLjYwMy40MSAwIC43ODMtLjA5IDEuMTA2LS4yNzUgMS4zNzQtLjc5MiAxLjY4My0zLjI2My45NzMtNi4zNjVDMjIuMDIgMTUuMDk2IDI0IDEzLjU5IDI0IDEyLjAwNGMwLTEuNTktMS45OS0zLjA5Ny01LjA0My00LjAzMi43MDQtMy4xMS4zOS01LjU4Ny0uOTg4LTYuMzgtLjMxOC0uMTg0LS42ODgtLjI3Ny0xLjA5Mi0uMjc4em0tLjAwNSAxLjA5di4wMDZjLjIyNSAwIC40MDYuMDQ0LjU1OC4xMjcuNjY2LjM4Mi45NTUgMS44MzUuNzMgMy43MDQtLjA1NC40Ni0uMTQyLjk0NS0uMjUgMS40NC0uOTYtLjIzNi0yLjAwNi0uNDE3LTMuMTA3LS41MzQtLjY2LS45MDUtMS4zNDUtMS43MjctMi4wMzUtMi40NDcgMS41OTItMS40OCAzLjA4Ny0yLjI5MiA0LjEwNS0yLjI5NXptLTkuNzcuMDJjMS4wMTIgMCAyLjUxNC44MDggNC4xMSAyLjI4LS42ODYuNzItMS4zNyAxLjUzNy0yLjAyIDIuNDQyLTEuMTA3LjExNy0yLjE1NC4yOTgtMy4xMTMuNTM4LS4xMTItLjQ5LS4xOTUtLjk2NC0uMjU0LTEuNDItLjIzLTEuODY4LjA1NC0zLjMyLjcxNC0zLjcwNy4xOS0uMDkuNC0uMTI3LjU2My0uMTMyem00Ljg4MiAzLjA1Yy40NTUuNDY4LjkxLjk5MiAxLjM2IDEuNTY0LS40NC0uMDItLjg5LS4wMzQtMS4zNDUtLjAzNC0uNDYgMC0uOTE1LjAxLTEuMzYuMDM0LjQ0LS41NzIuODk1LTEuMDk2IDEuMzQ1LTEuNTY1ek0xMiA4LjFjLjc0IDAgMS40NzcuMDM0IDIuMjAyLjA5My40MDYuNTgyLjgwMiAxLjIwMyAxLjE4MyAxLjg2LjM3Mi42NC43MSAxLjI5IDEuMDE4IDEuOTQ2LS4zMDguNjU1LS42NDYgMS4zMS0xLjAxMyAxLjk1LS4zOC42Ni0uNzczIDEuMjg4LTEuMTggMS44Ny0uNzI4LjA2My0xLjQ2Ni4wOTgtMi4yMS4wOTgtLjc0IDAtMS40NzctLjAzNS0yLjIwMi0uMDkzLS40MDYtLjU4Mi0uODAyLTEuMjA0LTEuMTgzLTEuODYtLjM3Mi0uNjQtLjcxLTEuMjktMS4wMTgtMS45NDYuMzAzLS42NTcuNjQ2LTEuMzEzIDEuMDEzLTEuOTU0LjM4LS42Ni43NzMtMS4yODYgMS4xOC0xLjg2OC43MjgtLjA2NCAxLjQ2Ni0uMDk4IDIuMjEtLjA5OHptLTMuNjM1LjI1NGMtLjI0LjM3Ny0uNDguNzYzLS43MDQgMS4xNi0uMjI1LjM5LS40MzUuNzgyLS42MzUgMS4xNzQtLjI2NS0uNjU2LS40OS0xLjMxLS42NzYtMS45NDcuNjQtLjE1IDEuMzE1LS4yODMgMi4wMTUtLjM4NnptNy4yNiAwYy42OTUuMTAzIDEuMzY1LjIzIDIuMDA2LjM4Ny0uMTguNjMyLS40MDUgMS4yODItLjY2IDEuOTMzLS4yLS4zOS0uNDEtLjc4My0uNjQtMS4xNzQtLjIyNS0uMzkyLS40NjUtLjc3NC0uNzA1LTEuMTQ2em0zLjA2My42NzVjLjQ4NC4xNS45NDQuMzE3IDEuMzc1LjQ5OCAxLjczMi43NCAyLjg1MiAxLjcwOCAyLjg1MiAyLjQ3Ni0uMDA1Ljc2OC0xLjEyNSAxLjc0LTIuODU3IDIuNDc1LS40Mi4xOC0uODguMzQyLTEuMzU1LjQ5My0uMjgtLjk1OC0uNjQ2LTEuOTU2LTEuMS0yLjk4LjQ1LTEuMDE3LjgxLTIuMDEgMS4wODUtMi45NjR6bS0xMy4zOTUuMDA0Yy4yNzguOTYuNjQ1IDEuOTU3IDEuMSAyLjk4LS40NSAxLjAxNy0uODEyIDIuMDEtMS4wODYgMi45NjQtLjQ4NC0uMTUtLjk0NC0uMzE4LTEuMzctLjUtMS43MzItLjczNy0yLjg1Mi0xLjcwNi0yLjg1Mi0yLjQ3NCAwLS43NjggMS4xMi0xLjc0MiAyLjg1Mi0yLjQ3Ni40Mi0uMTguODgtLjM0MiAxLjM1Ni0uNDk0em0xMS42NzggNC4yOGMuMjY1LjY1Ny40OSAxLjMxMi42NzYgMS45NDgtLjY0LjE1Ny0xLjMxNi4yOS0yLjAxNi4zOS4yNC0uMzc1LjQ4LS43NjIuNzA1LTEuMTU4LjIyNS0uMzkuNDM1LS43ODguNjM2LTEuMTh6bS05Ljk0NS4wMmMuMi4zOTIuNDEuNzgzLjY0IDEuMTc1LjIzLjM5LjQ2NS43NzIuNzA1IDEuMTQzLS42OTUtLjEwMi0xLjM2NS0uMjMtMi4wMDYtLjM4Ni4xOC0uNjMuNDA2LTEuMjgyLjY2LTEuOTMzek0xNy45MiAxNi4zMmMuMTEyLjQ5My4yLjk2OC4yNTQgMS40MjMuMjMgMS44NjgtLjA1NCAzLjMyLS43MTQgMy43MDgtLjE0Ny4wOS0uMzM4LjEyOC0uNTYzLjEyOC0xLjAxMiAwLTIuNTE0LS44MDctNC4xMS0yLjI4LjY4Ni0uNzIgMS4zNy0xLjUzNiAyLjAyLTIuNDQgMS4xMDctLjExOCAyLjE1NC0uMyAzLjExMy0uNTR6bS0xMS44My4wMWMuOTYuMjM0IDIuMDA2LjQxNSAzLjEwNy41MzIuNjYuOTA1IDEuMzQ1IDEuNzI3IDIuMDM1IDIuNDQ2LTEuNTk1IDEuNDgzLTMuMDkyIDIuMjk1LTQuMTEgMi4yOTUtLjIyLS4wMDUtLjQwNi0uMDUtLjU1My0uMTMyLS42NjYtLjM4LS45NTUtMS44MzQtLjczLTMuNzAzLjA1NC0uNDYuMTQyLS45NDQuMjUtMS40Mzh6bTQuNTYuNjRjLjQ0LjAyLjg5LjAzNCAxLjM0NS4wMzQuNDYgMCAuOTE1LS4wMSAxLjM2LS4wMzQtLjQ0LjU3Mi0uODk1IDEuMDk1LTEuMzQ1IDEuNTY1LS40NTUtLjQ3LS45MS0uOTkzLTEuMzYtMS41NjV6Ii8+PC9zdmc+;spacingTop=83;rotation=0;" parent="50" vertex="1">
                    <mxGeometry y="30" width="80" height="80" as="geometry"/>
                </mxCell>
                <mxCell id="62" style="shape=image;editableCssRules=.*;image=data:image/svg+xml,PHN2ZyB2aWV3Qm94PSIwIDAgMjQgMjQiIHhtbG5zPSJodHRwOi8vd3d3LnczLm9yZy8yMDAwL3N2ZyI+PHN0eWxlPip7ZmlsbDojMjQ5NkVEfTwvc3R5bGU+PHBhdGggZD0iTTEzLjk4MyAxMS4wNzhoMi4xMTlhLjE4Ni4xODYgMCAwMC4xODYtLjE4NVY5LjAwNmEuMTg2LjE4NiAwIDAwLS4xODYtLjE4NmgtMi4xMTlhLjE4NS4xODUgMCAwMC0uMTg1LjE4NXYxLjg4OGMwIC4xMDIuMDgzLjE4NS4xODUuMTg1bS0yLjk1NC01LjQzaDIuMTE4YS4xODYuMTg2IDAgMDAuMTg2LS4xODZWMy41NzRhLjE4Ni4xODYgMCAwMC0uMTg2LS4xODVoLTIuMTE4YS4xODUuMTg1IDAgMDAtLjE4NS4xODV2MS44ODhjMCAuMTAyLjA4Mi4xODUuMTg1LjE4NW0wIDIuNzE2aDIuMTE4YS4xODcuMTg3IDAgMDAuMTg2LS4xODZWNi4yOWEuMTg2LjE4NiAwIDAwLS4xODYtLjE4NWgtMi4xMThhLjE4NS4xODUgMCAwMC0uMTg1LjE4NXYxLjg4N2MwIC4xMDIuMDgyLjE4NS4xODUuMTg2bS0yLjkzIDBoMi4xMmEuMTg2LjE4NiAwIDAwLjE4NC0uMTg2VjYuMjlhLjE4NS4xODUgMCAwMC0uMTg1LS4xODVIOC4xYS4xODUuMTg1IDAgMDAtLjE4NS4xODV2MS44ODdjMCAuMTAyLjA4My4xODUuMTg1LjE4Nm0tMi45NjQgMGgyLjExOWEuMTg2LjE4NiAwIDAwLjE4NS0uMTg2VjYuMjlhLjE4NS4xODUgMCAwMC0uMTg1LS4xODVINS4xMzZhLjE4Ni4xODYgMCAwMC0uMTg2LjE4NXYxLjg4N2MwIC4xMDIuMDg0LjE4NS4xODYuMTg2bTUuODkzIDIuNzE1aDIuMTE4YS4xODYuMTg2IDAgMDAuMTg2LS4xODVWOS4wMDZhLjE4Ni4xODYgMCAwMC0uMTg2LS4xODZoLTIuMTE4YS4xODUuMTg1IDAgMDAtLjE4NS4xODV2MS44ODhjMCAuMTAyLjA4Mi4xODUuMTg1LjE4NW0tMi45MyAwaDIuMTJhLjE4NS4xODUgMCAwMC4xODQtLjE4NVY5LjAwNmEuMTg1LjE4NSAwIDAwLS4xODQtLjE4NmgtMi4xMmEuMTg1LjE4NSAwIDAwLS4xODQuMTg1djEuODg4YzAgLjEwMi4wODMuMTg1LjE4NS4xODVtLTIuOTY0IDBoMi4xMTlhLjE4NS4xODUgMCAwMC4xODUtLjE4NVY5LjAwNmEuMTg1LjE4NSAwIDAwLS4xODQtLjE4NmgtMi4xMmEuMTg2LjE4NiAwIDAwLS4xODYuMTg2djEuODg3YzAgLjEwMi4wODQuMTg1LjE4Ni4xODVtLTIuOTIgMGgyLjEyYS4xODUuMTg1IDAgMDAuMTg0LS4xODVWOS4wMDZhLjE4NS4xODUgMCAwMC0uMTg0LS4xODZoLTIuMTJhLjE4NS4xODUgMCAwMC0uMTg0LjE4NXYxLjg4OGMwIC4xMDIuMDgyLjE4NS4xODUuMTg1TTIzLjc2MyA5Ljg5Yy0uMDY1LS4wNTEtLjY3Mi0uNTEtMS45NTQtLjUxLS4zMzguMDAxLS42NzYuMDMtMS4wMS4wODctLjI0OC0xLjctMS42NTMtMi41My0xLjcxNi0yLjU2NmwtLjM0NC0uMTk5LS4yMjYuMzI3Yy0uMjg0LjQzOC0uNDkuOTIyLS42MTIgMS40My0uMjMuOTctLjA5IDEuODgyLjQwMyAyLjY2MS0uNTk1LjMzMi0xLjU1LjQxMy0xLjc0NC40MkguNzUxYS43NTEuNzUxIDAgMDAtLjc1Ljc0OCAxMS4zNzYgMTEuMzc2IDAgMDAuNjkyIDQuMDYyYy41NDUgMS40MjggMS4zNTUgMi40OCAyLjQxIDMuMTI0IDEuMTguNzIzIDMuMSAxLjEzNyA1LjI3NSAxLjEzNy45ODMuMDAzIDEuOTYzLS4wODYgMi45My0uMjY2YTEyLjI0OCAxMi4yNDggMCAwMDMuODIzLTEuMzg5Yy45OC0uNTY3IDEuODYtMS4yODggMi42MS0yLjEzNiAxLjI1Mi0xLjQxOCAxLjk5OC0yLjk5NyAyLjU1My00LjRoLjIyMWMxLjM3MiAwIDIuMjE1LS41NDkgMi42OC0xLjAwOS4zMDktLjI5My41NS0uNjUuNzA3LTEuMDQ2bC4wOTgtLjI4OFoiLz48L3N2Zz4=;fontSize=17;" parent="51" vertex="1">
                    <mxGeometry x="188.51999999999998" y="160" width="10" height="10" as="geometry"/>
                </mxCell>
                <mxCell id="52" value="" style="group" parent="65" vertex="1" connectable="0">
                    <mxGeometry x="231" y="148" width="170" height="120" as="geometry"/>
                </mxCell>
                <mxCell id="64" value="" style="group" parent="52" vertex="1" connectable="0">
                    <mxGeometry width="170" height="120" as="geometry"/>
                </mxCell>
                <mxCell id="10" value="Server-Container" style="verticalAlign=top;align=center;shape=cube;size=10;direction=south;html=1;boundedLbl=1;spacingLeft=5;" parent="64" vertex="1">
                    <mxGeometry width="170" height="120" as="geometry">
                        <mxPoint as="offset"/>
                    </mxGeometry>
                </mxCell>
                <mxCell id="16" value="Express.js" style="shape=image;editableCssRules=.*;image=data:image/svg+xml,PHN2ZyB2aWV3Qm94PSIwIDAgMjQgMjQiIHhtbG5zPSJodHRwOi8vd3d3LnczLm9yZy8yMDAwL3N2ZyI+PHN0eWxlPip7ZmlsbDojMDAwfTwvc3R5bGU+PHBhdGggZD0iTTI0IDE4LjU4OGExLjUyOSAxLjUyOSAwIDAxLTEuODk1LS43MmwtMy40NS00Ljc3MS0uNS0uNjY3LTQuMDAzIDUuNDQ0YTEuNDY2IDEuNDY2IDAgMDEtMS44MDIuNzA4bDUuMTU4LTYuOTItNC43OTgtNi4yNTFhMS41OTUgMS41OTUgMCAwMTEuOS42NjZsMy41NzYgNC44MyAzLjU5Ni00LjgxYTEuNDM1IDEuNDM1IDAgMDExLjc4OC0uNjY4TDIxLjcwOCA3LjlsLTIuNTIyIDMuMjgzYS42NjYuNjY2IDAgMDAwIC45OTRsNC44MDQgNi40MTJ6TS4wMDIgMTEuNTc2bC40Mi0yLjA3NWMxLjE1NC00LjEwMyA1Ljg1OC01LjgxIDkuMDk0LTMuMjcgMS44OTUgMS40ODkgMi4zNjggMy41OTcgMi4yNzUgNS45NzNIMS4xMTZDLjk0MyAxNi40NDcgNC4wMDUgMTkuMDA5IDcuOTIgMTcuN2E0LjA3OCA0LjA3OCAwIDAwMi41ODItMi44NzZjLjIwNy0uNjY2LjU0OC0uNzggMS4xNzQtLjU4OGE1LjQxNyA1LjQxNyAwIDAxLTIuNTg5IDMuOTU3IDYuMjcyIDYuMjcyIDAgMDEtNy4zMDYtLjkzMyA2LjU3NSA2LjU3NSAwIDAxLTEuNjQtMy44NThjMC0uMjM1LS4wOC0uNDU1LS4xMzQtLjY2NkE4OC4zMyA4OC4zMyAwIDAxMCAxMS41Nzd6bTEuMTI3LS4yODZoOS42NTRjLS4wNi0zLjA3Ni0yLjAwMS01LjI1OC00LjU5LTUuMjc4LTIuODgyLS4wNC00Ljk0NCAyLjA5NC01LjA3MSA1LjI2NHoiLz48L3N2Zz4=;spacingTop=72;" parent="64" vertex="1">
                    <mxGeometry x="75" y="40" width="80" height="60" as="geometry"/>
                </mxCell>
                <mxCell id="49" value="Node.js&#10;" style="shape=image;editableCssRules=.*;image=data:image/svg+xml,PHN2ZyB2aWV3Qm94PSIwIDAgMjQgMjQiIHhtbG5zPSJodHRwOi8vd3d3LnczLm9yZy8yMDAwL3N2ZyI+PHN0eWxlPip7ZmlsbDojMzkzfTwvc3R5bGU+PHBhdGggZD0iTTExLjk5OCwyNGMtMC4zMjEsMC0wLjY0MS0wLjA4NC0wLjkyMi0wLjI0N2wtMi45MzYtMS43MzdjLTAuNDM4LTAuMjQ1LTAuMjI0LTAuMzMyLTAuMDgtMC4zODMgYzAuNTg1LTAuMjAzLDAuNzAzLTAuMjUsMS4zMjgtMC42MDRjMC4wNjUtMC4wMzcsMC4xNTEtMC4wMjMsMC4yMTgsMC4wMTdsMi4yNTYsMS4zMzljMC4wODIsMC4wNDUsMC4xOTcsMC4wNDUsMC4yNzIsMGw4Ljc5NS01LjA3NiBjMC4wODItMC4wNDcsMC4xMzQtMC4xNDEsMC4xMzQtMC4yMzhWNi45MjFjMC0wLjA5OS0wLjA1My0wLjE5Mi0wLjEzNy0wLjI0MmwtOC43OTEtNS4wNzJjLTAuMDgxLTAuMDQ3LTAuMTg5LTAuMDQ3LTAuMjcxLDAgTDMuMDc1LDYuNjhDMi45OSw2LjcyOSwyLjkzNiw2LjgyNSwyLjkzNiw2LjkyMXYxMC4xNWMwLDAuMDk3LDAuMDU0LDAuMTg5LDAuMTM5LDAuMjM1bDIuNDA5LDEuMzkyIGMxLjMwNywwLjY1NCwyLjEwOC0wLjExNiwyLjEwOC0wLjg5VjcuNzg3YzAtMC4xNDIsMC4xMTQtMC4yNTMsMC4yNTYtMC4yNTNoMS4xMTVjMC4xMzksMCwwLjI1NSwwLjExMiwwLjI1NSwwLjI1M3YxMC4wMjEgYzAsMS43NDUtMC45NSwyLjc0NS0yLjYwNCwyLjc0NWMtMC41MDgsMC0wLjkwOSwwLTIuMDI2LTAuNTUxTDIuMjgsMTguNjc1Yy0wLjU3LTAuMzI5LTAuOTIyLTAuOTQ1LTAuOTIyLTEuNjA0VjYuOTIxIGMwLTAuNjU5LDAuMzUzLTEuMjc1LDAuOTIyLTEuNjAzbDguNzk1LTUuMDgyYzAuNTU3LTAuMzE1LDEuMjk2LTAuMzE1LDEuODQ4LDBsOC43OTQsNS4wODJjMC41NywwLjMyOSwwLjkyNCwwLjk0NCwwLjkyNCwxLjYwMyB2MTAuMTVjMCwwLjY1OS0wLjM1NCwxLjI3My0wLjkyNCwxLjYwNGwtOC43OTQsNS4wNzhDMTIuNjQzLDIzLjkxNiwxMi4zMjQsMjQsMTEuOTk4LDI0eiBNMTkuMDk5LDEzLjk5MyBjMC0xLjktMS4yODQtMi40MDYtMy45ODctMi43NjNjLTIuNzMxLTAuMzYxLTMuMDA5LTAuNTQ4LTMuMDA5LTEuMTg3YzAtMC41MjgsMC4yMzUtMS4yMzMsMi4yNTgtMS4yMzMgYzEuODA3LDAsMi40NzMsMC4zODksMi43NDcsMS42MDdjMC4wMjQsMC4xMTUsMC4xMjksMC4xOTksMC4yNDcsMC4xOTloMS4xNDFjMC4wNzEsMCwwLjEzOC0wLjAzMSwwLjE4Ni0wLjA4MSBjMC4wNDgtMC4wNTQsMC4wNzQtMC4xMjMsMC4wNjctMC4xOTZjLTAuMTc3LTIuMDk4LTEuNTcxLTMuMDc2LTQuMzg4LTMuMDc2Yy0yLjUwOCwwLTQuMDA0LDEuMDU4LTQuMDA0LDIuODMzIGMwLDEuOTI1LDEuNDg4LDIuNDU3LDMuODk1LDIuNjk1YzIuODgsMC4yODIsMy4xMDMsMC43MDMsMy4xMDMsMS4yNjljMCwwLjk4My0wLjc4OSwxLjQwMi0yLjY0MiwxLjQwMiBjLTIuMzI3LDAtMi44MzktMC41ODQtMy4wMTEtMS43NDJjLTAuMDItMC4xMjQtMC4xMjYtMC4yMTUtMC4yNTMtMC4yMTVoLTEuMTM3Yy0wLjE0MSwwLTAuMjU0LDAuMTEyLTAuMjU0LDAuMjUzIGMwLDEuNDgyLDAuODA2LDMuMjQ4LDQuNjU1LDMuMjQ4QzE3LjUwMSwxNy4wMDcsMTkuMDk5LDE1LjkxLDE5LjA5OSwxMy45OTN6Ii8+PC9zdmc+;spacingTop=86;fontSize=12;spacingLeft=0;" parent="64" vertex="1">
                    <mxGeometry x="10" y="40" width="60" height="60" as="geometry"/>
                </mxCell>
                <mxCell id="61" style="shape=image;editableCssRules=.*;image=data:image/svg+xml,PHN2ZyB2aWV3Qm94PSIwIDAgMjQgMjQiIHhtbG5zPSJodHRwOi8vd3d3LnczLm9yZy8yMDAwL3N2ZyI+PHN0eWxlPip7ZmlsbDojMjQ5NkVEfTwvc3R5bGU+PHBhdGggZD0iTTEzLjk4MyAxMS4wNzhoMi4xMTlhLjE4Ni4xODYgMCAwMC4xODYtLjE4NVY5LjAwNmEuMTg2LjE4NiAwIDAwLS4xODYtLjE4NmgtMi4xMTlhLjE4NS4xODUgMCAwMC0uMTg1LjE4NXYxLjg4OGMwIC4xMDIuMDgzLjE4NS4xODUuMTg1bS0yLjk1NC01LjQzaDIuMTE4YS4xODYuMTg2IDAgMDAuMTg2LS4xODZWMy41NzRhLjE4Ni4xODYgMCAwMC0uMTg2LS4xODVoLTIuMTE4YS4xODUuMTg1IDAgMDAtLjE4NS4xODV2MS44ODhjMCAuMTAyLjA4Mi4xODUuMTg1LjE4NW0wIDIuNzE2aDIuMTE4YS4xODcuMTg3IDAgMDAuMTg2LS4xODZWNi4yOWEuMTg2LjE4NiAwIDAwLS4xODYtLjE4NWgtMi4xMThhLjE4NS4xODUgMCAwMC0uMTg1LjE4NXYxLjg4N2MwIC4xMDIuMDgyLjE4NS4xODUuMTg2bS0yLjkzIDBoMi4xMmEuMTg2LjE4NiAwIDAwLjE4NC0uMTg2VjYuMjlhLjE4NS4xODUgMCAwMC0uMTg1LS4xODVIOC4xYS4xODUuMTg1IDAgMDAtLjE4NS4xODV2MS44ODdjMCAuMTAyLjA4My4xODUuMTg1LjE4Nm0tMi45NjQgMGgyLjExOWEuMTg2LjE4NiAwIDAwLjE4NS0uMTg2VjYuMjlhLjE4NS4xODUgMCAwMC0uMTg1LS4xODVINS4xMzZhLjE4Ni4xODYgMCAwMC0uMTg2LjE4NXYxLjg4N2MwIC4xMDIuMDg0LjE4NS4xODYuMTg2bTUuODkzIDIuNzE1aDIuMTE4YS4xODYuMTg2IDAgMDAuMTg2LS4xODVWOS4wMDZhLjE4Ni4xODYgMCAwMC0uMTg2LS4xODZoLTIuMTE4YS4xODUuMTg1IDAgMDAtLjE4NS4xODV2MS44ODhjMCAuMTAyLjA4Mi4xODUuMTg1LjE4NW0tMi45MyAwaDIuMTJhLjE4NS4xODUgMCAwMC4xODQtLjE4NVY5LjAwNmEuMTg1LjE4NSAwIDAwLS4xODQtLjE4NmgtMi4xMmEuMTg1LjE4NSAwIDAwLS4xODQuMTg1djEuODg4YzAgLjEwMi4wODMuMTg1LjE4NS4xODVtLTIuOTY0IDBoMi4xMTlhLjE4NS4xODUgMCAwMC4xODUtLjE4NVY5LjAwNmEuMTg1LjE4NSAwIDAwLS4xODQtLjE4NmgtMi4xMmEuMTg2LjE4NiAwIDAwLS4xODYuMTg2djEuODg3YzAgLjEwMi4wODQuMTg1LjE4Ni4xODVtLTIuOTIgMGgyLjEyYS4xODUuMTg1IDAgMDAuMTg0LS4xODVWOS4wMDZhLjE4NS4xODUgMCAwMC0uMTg0LS4xODZoLTIuMTJhLjE4NS4xODUgMCAwMC0uMTg0LjE4NXYxLjg4OGMwIC4xMDIuMDgyLjE4NS4xODUuMTg1TTIzLjc2MyA5Ljg5Yy0uMDY1LS4wNTEtLjY3Mi0uNTEtMS45NTQtLjUxLS4zMzguMDAxLS42NzYuMDMtMS4wMS4wODctLjI0OC0xLjctMS42NTMtMi41My0xLjcxNi0yLjU2NmwtLjM0NC0uMTk5LS4yMjYuMzI3Yy0uMjg0LjQzOC0uNDkuOTIyLS42MTIgMS40My0uMjMuOTctLjA5IDEuODgyLjQwMyAyLjY2MS0uNTk1LjMzMi0xLjU1LjQxMy0xLjc0NC40MkguNzUxYS43NTEuNzUxIDAgMDAtLjc1Ljc0OCAxMS4zNzYgMTEuMzc2IDAgMDAuNjkyIDQuMDYyYy41NDUgMS40MjggMS4zNTUgMi40OCAyLjQxIDMuMTI0IDEuMTguNzIzIDMuMSAxLjEzNyA1LjI3NSAxLjEzNy45ODMuMDAzIDEuOTYzLS4wODYgMi45My0uMjY2YTEyLjI0OCAxMi4yNDggMCAwMDMuODIzLTEuMzg5Yy45OC0uNTY3IDEuODYtMS4yODggMi42MS0yLjEzNiAxLjI1Mi0xLjQxOCAxLjk5OC0yLjk5NyAyLjU1My00LjRoLjIyMWMxLjM3MiAwIDIuMjE1LS41NDkgMi42OC0xLjAwOS4zMDktLjI5My41NS0uNjUuNzA3LTEuMDQ2bC4wOTgtLjI4OFoiLz48L3N2Zz4=;fontSize=17;" parent="64" vertex="1">
                    <mxGeometry x="149" y="110" width="10" height="10" as="geometry"/>
                </mxCell>
                <mxCell id="48" style="edgeStyle=none;html=1;exitX=0;exitY=0;exitDx=90;exitDy=210;exitPerimeter=0;entryX=0;entryY=0;entryDx=65;entryDy=0;entryPerimeter=0;fontSize=10;startArrow=classic;startFill=1;" parent="65" source="19" target="10" edge="1">
                    <mxGeometry relative="1" as="geometry"/>
                </mxCell>
                <mxCell id="58" style="edgeStyle=none;html=1;exitX=0;exitY=0;exitDx=65;exitDy=170;exitPerimeter=0;entryX=0.542;entryY=0;entryDx=0;entryDy=0;entryPerimeter=0;fontSize=12;startArrow=classic;startFill=1;" parent="65" source="10" target="31" edge="1">
                    <mxGeometry relative="1" as="geometry"/>
                </mxCell>
                <mxCell id="11" value="" style="sketch=0;aspect=fixed;html=1;points=[];align=center;image;fontSize=12;image=img/lib/mscae/Docker.svg;" parent="65" vertex="1">
                    <mxGeometry x="300" y="40" width="109.76" height="90" as="geometry"/>
                </mxCell>
                <mxCell id="63" value="" style="group" parent="65" vertex="1" connectable="0">
                    <mxGeometry x="26" y="148" width="150" height="120" as="geometry"/>
                </mxCell>
                <mxCell id="31" value="Database-Container" style="verticalAlign=top;align=center;shape=cube;size=10;direction=south;html=1;boundedLbl=1;spacingLeft=5;" parent="63" vertex="1">
                    <mxGeometry width="150" height="120" as="geometry">
                        <mxPoint as="offset"/>
                    </mxGeometry>
                </mxCell>
                <mxCell id="7" value="MongoDB" style="shape=image;editableCssRules=.*;image=data:image/svg+xml,PHN2ZyB2aWV3Qm94PSIwIDAgMjQgMjQiIHhtbG5zPSJodHRwOi8vd3d3LnczLm9yZy8yMDAwL3N2ZyI+PHN0eWxlPip7ZmlsbDojNDdBMjQ4fTwvc3R5bGU+PHBhdGggZD0iTTE3LjE5MyA5LjU1NWMtMS4yNjQtNS41OC00LjI1Mi03LjQxNC00LjU3My04LjExNS0uMjgtLjM5NC0uNTMtLjk1NC0uNzM1LTEuNDQtLjAzNi40OTUtLjA1NS42ODUtLjUyMyAxLjE4NC0uNzIzLjU2Ni00LjQzOCAzLjY4Mi00Ljc0IDEwLjAyLS4yODIgNS45MTIgNC4yNyA5LjQzNSA0Ljg4OCA5Ljg4NGwuMDcuMDVBNzMuNDkgNzMuNDkgMCAwMTExLjkxIDI0aC40ODFjLjExNC0xLjAzMi4yODQtMi4wNTYuNTEtMy4wNy40MTctLjI5Ni42MDQtLjQ2My44NS0uNjkzYTExLjM0MiAxMS4zNDIgMCAwMDMuNjM5LTguNDY0Yy4wMS0uODE0LS4xMDMtMS42NjItLjE5Ny0yLjIxOHptLTUuMzM2IDguMTk1czAtOC4yOTEuMjc1LTguMjljLjIxMyAwIC40OSAxMC42OTUuNDkgMTAuNjk1LS4zODEtLjA0NS0uNzY1LTEuNzYtLjc2NS0yLjQwNXoiLz48L3N2Zz4=;spacingLeft=100;" parent="63" vertex="1">
                    <mxGeometry y="40" width="72.41379310344827" height="70" as="geometry"/>
                </mxCell>
                <mxCell id="60" style="shape=image;editableCssRules=.*;image=data:image/svg+xml,PHN2ZyB2aWV3Qm94PSIwIDAgMjQgMjQiIHhtbG5zPSJodHRwOi8vd3d3LnczLm9yZy8yMDAwL3N2ZyI+PHN0eWxlPip7ZmlsbDojMjQ5NkVEfTwvc3R5bGU+PHBhdGggZD0iTTEzLjk4MyAxMS4wNzhoMi4xMTlhLjE4Ni4xODYgMCAwMC4xODYtLjE4NVY5LjAwNmEuMTg2LjE4NiAwIDAwLS4xODYtLjE4NmgtMi4xMTlhLjE4NS4xODUgMCAwMC0uMTg1LjE4NXYxLjg4OGMwIC4xMDIuMDgzLjE4NS4xODUuMTg1bS0yLjk1NC01LjQzaDIuMTE4YS4xODYuMTg2IDAgMDAuMTg2LS4xODZWMy41NzRhLjE4Ni4xODYgMCAwMC0uMTg2LS4xODVoLTIuMTE4YS4xODUuMTg1IDAgMDAtLjE4NS4xODV2MS44ODhjMCAuMTAyLjA4Mi4xODUuMTg1LjE4NW0wIDIuNzE2aDIuMTE4YS4xODcuMTg3IDAgMDAuMTg2LS4xODZWNi4yOWEuMTg2LjE4NiAwIDAwLS4xODYtLjE4NWgtMi4xMThhLjE4NS4xODUgMCAwMC0uMTg1LjE4NXYxLjg4N2MwIC4xMDIuMDgyLjE4NS4xODUuMTg2bS0yLjkzIDBoMi4xMmEuMTg2LjE4NiAwIDAwLjE4NC0uMTg2VjYuMjlhLjE4NS4xODUgMCAwMC0uMTg1LS4xODVIOC4xYS4xODUuMTg1IDAgMDAtLjE4NS4xODV2MS44ODdjMCAuMTAyLjA4My4xODUuMTg1LjE4Nm0tMi45NjQgMGgyLjExOWEuMTg2LjE4NiAwIDAwLjE4NS0uMTg2VjYuMjlhLjE4NS4xODUgMCAwMC0uMTg1LS4xODVINS4xMzZhLjE4Ni4xODYgMCAwMC0uMTg2LjE4NXYxLjg4N2MwIC4xMDIuMDg0LjE4NS4xODYuMTg2bTUuODkzIDIuNzE1aDIuMTE4YS4xODYuMTg2IDAgMDAuMTg2LS4xODVWOS4wMDZhLjE4Ni4xODYgMCAwMC0uMTg2LS4xODZoLTIuMTE4YS4xODUuMTg1IDAgMDAtLjE4NS4xODV2MS44ODhjMCAuMTAyLjA4Mi4xODUuMTg1LjE4NW0tMi45MyAwaDIuMTJhLjE4NS4xODUgMCAwMC4xODQtLjE4NVY5LjAwNmEuMTg1LjE4NSAwIDAwLS4xODQtLjE4NmgtMi4xMmEuMTg1LjE4NSAwIDAwLS4xODQuMTg1djEuODg4YzAgLjEwMi4wODMuMTg1LjE4NS4xODVtLTIuOTY0IDBoMi4xMTlhLjE4NS4xODUgMCAwMC4xODUtLjE4NVY5LjAwNmEuMTg1LjE4NSAwIDAwLS4xODQtLjE4NmgtMi4xMmEuMTg2LjE4NiAwIDAwLS4xODYuMTg2djEuODg3YzAgLjEwMi4wODQuMTg1LjE4Ni4xODVtLTIuOTIgMGgyLjEyYS4xODUuMTg1IDAgMDAuMTg0LS4xODVWOS4wMDZhLjE4NS4xODUgMCAwMC0uMTg0LS4xODZoLTIuMTJhLjE4NS4xODUgMCAwMC0uMTg0LjE4NXYxLjg4OGMwIC4xMDIuMDgyLjE4NS4xODUuMTg1TTIzLjc2MyA5Ljg5Yy0uMDY1LS4wNTEtLjY3Mi0uNTEtMS45NTQtLjUxLS4zMzguMDAxLS42NzYuMDMtMS4wMS4wODctLjI0OC0xLjctMS42NTMtMi41My0xLjcxNi0yLjU2NmwtLjM0NC0uMTk5LS4yMjYuMzI3Yy0uMjg0LjQzOC0uNDkuOTIyLS42MTIgMS40My0uMjMuOTctLjA5IDEuODgyLjQwMyAyLjY2MS0uNTk1LjMzMi0xLjU1LjQxMy0xLjc0NC40MkguNzUxYS43NTEuNzUxIDAgMDAtLjc1Ljc0OCAxMS4zNzYgMTEuMzc2IDAgMDAuNjkyIDQuMDYyYy41NDUgMS40MjggMS4zNTUgMi40OCAyLjQxIDMuMTI0IDEuMTguNzIzIDMuMSAxLjEzNyA1LjI3NSAxLjEzNy45ODMuMDAzIDEuOTYzLS4wODYgMi45My0uMjY2YTEyLjI0OCAxMi4yNDggMCAwMDMuODIzLTEuMzg5Yy45OC0uNTY3IDEuODYtMS4yODggMi42MS0yLjEzNiAxLjI1Mi0xLjQxOCAxLjk5OC0yLjk5NyAyLjU1My00LjRoLjIyMWMxLjM3MiAwIDIuMjE1LS41NDkgMi42OC0xLjAwOS4zMDktLjI5My41NS0uNjUuNzA3LTEuMDQ2bC4wOTgtLjI4OFoiLz48L3N2Zz4=;fontSize=17;" parent="63" vertex="1">
                    <mxGeometry x="129" y="110" width="10" height="10" as="geometry"/>
                </mxCell>
            </root>
        </mxGraphModel>
    </diagram>
</mxfile>